<?xml version="1.0" encoding="UTF-8" standalone="no"?>
<svg
   version="1.0"
   width="1191.000000pt"
   height="1001.000000pt"
   viewBox="0 0 1191.000000 1001.000000"
   preserveAspectRatio="xMidYMid meet"
   id="svg1764"
   sodipodi:docname="uml.svg"
   inkscape:version="1.1 (c68e22c387, 2021-05-23)"
   xmlns:inkscape="http://www.inkscape.org/namespaces/inkscape"
   xmlns:sodipodi="http://sodipodi.sourceforge.net/DTD/sodipodi-0.dtd"
   xmlns="http://www.w3.org/2000/svg"
   xmlns:svg="http://www.w3.org/2000/svg">
  <defs
     id="defs1768" />
  <sodipodi:namedview
     id="namedview1766"
     pagecolor="#ffffff"
     bordercolor="#666666"
     borderopacity="1.0"
     inkscape:pageshadow="2"
     inkscape:pageopacity="0.0"
     inkscape:pagecheckerboard="0"
     inkscape:document-units="pt"
     showgrid="false"
     inkscape:zoom="0.87"
     inkscape:cx="850"
     inkscape:cy="58.62069"
     inkscape:window-width="1920"
     inkscape:window-height="986"
     inkscape:window-x="-11"
     inkscape:window-y="-11"
     inkscape:window-maximized="1"
     inkscape:current-layer="g1762" />
  <g
     transform="translate(0.000000,1001.000000) scale(0.100000,-0.100000)"
     fill="#000000"
     stroke="none"
     id="g1762">
    <path
       d="M6700 9705 l0 -305 350 0 350 0 -1 -377 -1 -378 446 0 c290 0 446 -3 446 -10 0 -5 0 -170 0 -365 l0 -355 -295 -3 -295 -2 0 -150 0 -151 -30 16 c-37 19 -51 19 -44 0 5 -13 -102 -15 -931 -15 l-937 0 -29 -29 -29 -29 0 -137 c0 -118 -2 -136 -15 -131 -8 3 -15 1 -15 -5 0 -12 29 -69 35 -69 6 0 35 57 35 69 0 6 -7 8 -16 4 -14 -5 -15 10 -12 135 2 120 6 144 21 159 17 17 71 18 958 21 838 2 941 1 935 -13 -7 -19 7 -19 44 0 l30 16 0 -151 0 -150 605 0 605 0 0 305 0 305 -295 2 -295 3 -1 360 -1 360 449 5 448 5 0 378 0 377 298 0 297 0 0 305 0 305 -605 0 -605 0 0 -305 0 -305 295 -2 295 -3 0 -355 c1 -195 1 -359 0 -365 0 -7 -303 -10 -889 -10 l-889 0 -1 350 c-1 193 1 358 5 368 6 15 29 17 250 17 l244 0 0 305 0 305 -605 0 -605 0 0 -305z m1200 0 l0 -295 -595 0 -595 0 0 295 0 295 595 0 595 0 0 -295z m1900 0 l0 -295 -595 0 -595 0 0 295 0 295 595 0 595 0 0 -295z m-900 -2100 l0 -295 -595 0 -595 0 0 295 0 295 595 0 595 0 0 -295z"
       id="path2" />
    <path
       d="M9419 7493 c-12 -13 -14 -132 -14 -677 l0 -661 5 656 c5 713 3 689 61 689 l29 0 0 -300 0 -300 605 0 605 0 0 305 0 305 -639 0 c-582 0 -640 -1 -652 -17z m1281 -288 l0 -295 -595 0 -595 0 0 295 0 295 595 0 595 0 0 -295z"
       id="path134" />
    <path
       id="path180"
       style="stroke-width:0.133333"
       transform="matrix(7.5,0,0,-7.5,0,10010)"
       d="m 613.33398,380 v 33.33398 33.33204 H 520 426.66602 v 40.5332 40.5332 l -5.33204,0.9336 C 418.40065,529.19935 416,530.13411 416,530.80078 c 0,0.66667 0.53307,1.19922 1.06641,1.19922 0.66666,0 2.00026,1.4668 2.93359,3.4668 l 1.86719,3.33398 2.40039,-4.40039 c 2.26666,-4.26667 2.2651,-3.4668 2.39844,34.5332 V 608 H 460 493.33398 v 42.66602 42.66796 H 460 426.66602 v 40 40.13282 l -4,-2.13282 c -4.93334,-2.53333 -6.79857,-2.53333 -5.86524,0 0.66667,1.73334 -1.59987,2 -16.5332,2 -19.2,0 -23.33425,1.0655 -26.26758,6.79883 -1.33333,2.53334 -12.66602,82.66628 -12.66602,89.59961 0,0.4 -1.2013,0.4 -2.66796,0 -2.53334,-0.66666 -2.53269,-0.5319 -0.66602,4.13477 1.06667,2.53333 2,5.06679 2,5.46679 0,0.4 -24.00065,0.66602 -53.33398,0.66602 h -53.33204 v 40.66602 40.66796 H 334 414.66602 V 920.66602 880 h -26.79883 -26.66797 l 2.66797,-3.86719 c 3.33333,-4.66666 3.59935,-7.06523 0.66601,-5.86523 -1.86666,0.66666 -2.00065,-3.9e-4 -1.33398,-4.40039 0.4,-2.8 2.93346,-22.53386 5.4668,-43.86719 3.06666,-25.33333 5.46744,-39.73242 6.80078,-41.73242 3.06666,-4.66667 7.20013,-5.60156 25.46679,-5.60156 14.26667,0 16.53386,0.26666 15.86719,2 -0.93333,2.53333 0.9319,2.53333 5.86524,0 l 4,-2.13282 v 40.13282 40 h 34 34 v -30 -30 H 587.33398 680 V 828 861.33398 h 80.66602 80.66796 v -30 -30 H 874.66602 908 V 720.66602 640 H 874.66602 841.33398 V 624 608 H 874.66602 908 V 527.33398 446.66602 H 841.33398 774.66602 V 413.33398 380 H 694 Z m 1.33204,1.33398 H 694 773.33398 V 414 446.66602 H 694 614.66602 V 414 Z M 428,448 h 32.66602 32.66796 v 79.33398 79.33204 H 460.66602 428 v -79.33204 z m 66.66602,0 H 667.33398 840 V 620.66602 793.33398 H 667.33398 494.66602 V 620.66602 Z m 346.66796,0 H 874 906.66602 v 79.33398 79.33204 H 874 841.33398 v -79.33204 z m 0,193.33398 H 874 906.66602 V 720.66602 800 H 874 841.33398 V 720.66602 Z M 428,694.66602 h 32.66602 32.66796 V 774 853.33398 H 460.66602 428 v -36.40039 c 0.0629,-17.50649 0.35035,-26.38467 1.01367,-31.97265 -0.13483,-0.10188 -0.23633,-0.30026 -0.23633,-0.60156 v -0.16602 -0.60156 -0.45899 -0.37304 -0.32227 -0.37109 -0.3418 -0.48047 -0.3125 c 0,-0.12871 -2e-5,-0.25805 0,-0.38672 2e-5,-0.2734 2e-5,-0.54688 0,-0.82031 -0.0568,-0.10848 -0.0918,-0.25133 -0.0918,-0.42969 v -0.19922 -0.63476 -0.42774 c 0,-0.15525 -3e-5,-0.30957 0,-0.46484 1e-5,-0.10713 9e-5,-0.21507 0,-0.32227 1.4e-4,-0.0869 0.001,-0.17283 0,-0.25976 -10e-4,-0.10866 -1.4e-4,-0.21791 0.008,-0.32617 -0.009,-0.1725 -0.0757,-0.37 0.0137,-0.53516 0.02,-0.0369 0.0461,-0.0684 0.0742,-0.0996 0.003,-0.053 0.005,-0.10975 -0.002,-0.16016 0,-0.10722 -0.007,-0.21523 0.006,-0.32226 -0.01,-8.9e-4 -0.0194,-5e-4 -0.0293,-0.002 -0.008,-9.8e-4 1.4e-4,-0.10871 0.0137,-0.23438 -0.004,-0.0174 -0.002,-0.0399 0.006,-0.0625 1.6e-4,-10e-4 0.002,-0.002 0.002,-0.004 0.024,-0.21507 0.0562,-0.46271 0.0508,-0.46289 h -0.002 c -0.44268,-0.0134 -0.2146,-0.20298 0.125,-0.29101 -0.57469,-2.69787 -0.7268,-12.10148 -0.81836,-37.55274 z m 2.37305,80.28125 c -0.0336,0.0458 -0.0423,0.1018 -0.0645,0.15234 0.0153,0.009 0.0298,0.0199 0.0449,0.0293 0.0102,-0.0606 0.01,-0.12119 0.0195,-0.18164 z m -1.26758,0.59179 c -0.0968,0.006 -0.19353,0.0112 -0.28906,0.006 0.0912,0.028 0.1813,0.0619 0.27148,0.0957 0.006,-0.0331 0.008,-0.0719 0.0176,-0.10156 z m -0.17578,0.32422 c -0.008,0.007 -0.0382,0.0358 -0.0508,0.0469 -0.003,0.008 -0.003,0.0119 -0.006,0.0195 0.02,-0.0207 0.0388,-0.0421 0.0566,-0.0645 z m 1.3164,1.98047 c -0.008,1.8e-4 -0.009,0.008 0,0.0234 0.013,0.0238 0.0273,0.0465 0.043,0.0684 0.008,-0.0139 0.0135,-0.0449 0.0215,-0.0586 -0.0284,-0.0194 -0.0539,-0.0335 -0.0645,-0.0332 z m 7.31836,0.66016 c -0.10216,0.0951 -0.20349,0.19259 -0.30468,0.28906 0.0171,0.0162 0.0449,0.0574 0.0605,0.0703 0.0894,-0.10143 0.17367,-0.20847 0.25586,-0.3164 -8.1e-4,-0.007 -0.0108,-0.0361 -0.0117,-0.043 z m 243.76953,16.16211 H 760.66602 840 V 827.33398 860 H 760.66602 681.33398 V 827.33398 Z M 254.66602,881.33398 H 334 413.33398 V 920.66602 960 H 334 254.66602 v -39.33398 z" />
    <path
       d="M4000 5005 l0 -305 1005 0 1005 0 0 305 0 305 -1005 0 -1005 0 0 -305z m2000 0 l0 -295 -995 0 -995 0 0 295 0 295 995 0 995 0 0 -295z"
       id="path284" />
    <path
       d="M0 6705 l0 -305 855 0 855 0 0 300 0 300 29 0 c58 0 55 40 62 -879 4 -465 7 -853 6 -861 0 -8 0 -384 -1 -835 l-1 -820 5 820 c3 451 6 821 8 823 1 1 19 3 40 3 28 2 31 3 10 6 -55 9 -53 -30 -58 878 -4 693 -7 845 -19 858 -12 16 -88 17 -902 17 l-889 0 0 -305z m1700 0 l0 -295 -845 0 -845 0 0 295 0 295 845 0 845 0 0 -295z"
       id="path460" />
    <path
       d="M9500 6505 l0 -305 1205 0 1205 0 0 305 0 305 -1205 0 -1205 0 0 -305z m2400 0 l0 -295 -1195 0 -1195 0 0 295 0 295 1195 0 1195 0 0 -295z"
       id="path506" />
    <path
       d="M8100 6210 l0 -201 -30 16 c-37 19 -51 19 -44 0 5 -13 -57 -15 -521 -15 -464 0 -526 2 -521 15 7 19 -3 19 -43 -1 l-33 -16 29 -19 c34 -23 54 -24 47 -4 -5 13 57 15 521 15 464 0 526 -2 521 -15 -7 -19 7 -19 44 0 l30 16 0 -101 0 -100 605 0 605 0 0 305 0 305 -605 0 -605 0 0 -200z m1200 -105 l0 -295 -595 0 -595 0 0 295 0 295 595 0 595 0 0 -295z"
       id="path574" />
    <path
       d="M0 5905 l0 -305 855 0 855 0 0 305 0 305 -855 0 -855 0 0 -305z m1700 0 l0 -295 -845 0 -845 0 0 295 0 295 845 0 845 0 0 -295z"
       id="path606" />
    <path
       d="M9401 6130 c-2 -37 -27 -68 -59 -73 -22 -3 -19 -4 11 -6 20 0 38 -2 39 -3 2 -2 5 -304 8 -673 l5 -670 3 658 c1 417 -2 665 -8 677 -6 12 -6 28 1 49 6 16 9 38 6 48 -3 13 -5 10 -6 -7z"
       id="path660" />
    <path
       id="path662"
       style="stroke-width:0.133333"
       transform="matrix(7.5,0,0,-7.5,0,10010)"
       d="M 253.33398,533.33398 V 614 694.66602 h 34 34 v -40.53321 -40.5332 l 5.33204,-0.93359 c 5.33333,-0.93334 6.80104,-2.53243 3.73437,-3.73243 -1.2,-0.53333 -1.33424,-1.06718 -0.26758,-1.86718 C 339.06615,600.53307 418.4,535.33359 418,534.93359 c -0.26667,-0.26666 -20.53359,15.73295 -44.93359,35.59961 -24.4,19.86667 -44.80065,36.13282 -45.33399,36.13282 -0.66666,0 -1.0664,-1.06511 -1.0664,-2.39844 -0.13334,-1.33334 -1.06602,-0.5349 -2.66602,2.39844 l -2.5332,4.66796 -0.13282,-39.0664 v -38.9336 h -34 z m 1.33204,1.33204 H 287.33398 320 v 33.20117 33.33203 l -0.54883,0.0742 c 1.1e-4,0.12506 6.3e-4,0.25013 0,0.375 0,0.1412 -0.003,0.28249 -0.002,0.42383 0.3153,0.0676 0.55362,0.38035 0.39258,0.92968 -0.0529,0.18068 0.0475,0.49737 0,0.6836 -0.0352,0.13824 -0.0787,0.27333 -0.11914,0.41015 -0.0316,0.0574 -0.0728,0.11041 -0.0957,0.17188 -0.0409,0.1097 0.0501,-0.058 0.0527,-0.0371 0.009,0.0837 0.0103,0.16795 0.0156,0.25195 0.0245,0.37576 0.0115,0.0781 0.0254,0.53125 0.0107,0.22834 -0.016,0.45738 -0.01,0.68555 0.002,0.23253 0.003,0.4647 0.002,0.69726 2.4e-4,0.18352 10e-6,0.36727 0,0.55079 0,0.0825 0.0107,0.16631 0,0.24804 -0.0185,0.13842 -0.0455,0.27709 -0.0879,0.41016 -0.0128,0.0403 -0.0317,0.0774 -0.0508,0.11523 0.05,0.20861 -0.0103,0.42621 0.006,0.63477 0.005,0.23099 0.002,0.46234 0.002,0.69336 -3.6e-4,0.3429 0,0.68444 0,1.02734 -0.0317,0.13395 -0.062,0.2684 -0.0937,0.40235 -0.0243,0.0644 -0.0545,0.12738 -0.0742,0.19336 0.008,0.0309 0.0126,0.0611 0.006,0.0898 -0.005,0.0249 -0.016,-0.0515 -0.01,-0.0762 10e-4,-0.005 0.003,-0.009 0.004,-0.0137 -0.0194,-0.072 -0.0657,-0.14496 -0.084,-0.18946 0.1076,0.43656 0.22974,0.84208 0.0156,1.26953 -0.007,0.0138 -0.0173,0.026 -0.0254,0.0391 v 0.002 c 0.0142,0.1441 0.01,0.28984 0,0.43359 0.002,0.12631 0.002,0.25264 0.002,0.37891 -7.9e-4,0.18303 -6e-5,0.3658 0,0.54883 -4e-5,0.17209 -2e-5,0.34353 0,0.51562 10e-6,0.18954 0,0.38078 0,0.57031 v 0.72852 0.29297 c 0,0.36926 -0.10717,0.63159 -0.25977,0.78906 0.36659,5.42791 0.47369,15.73166 0.66992,35.68164 L 320,693.33398 H 287.33398 254.66602 V 650 606.66602 h 0.23046 c -0.003,-0.14222 0.0185,-0.27989 0.0469,-0.41797 10e-6,-0.0114 7.4e-4,-0.0242 0,-0.0312 l -0.006,-0.0527 c -0.0431,-0.52411 0.14847,-0.85176 0.39648,-0.96875 -0.0279,-0.11484 -0.0595,-0.24122 -0.0391,-0.35547 0.0107,-0.0598 0.0264,-0.11754 0.0449,-0.17382 h -0.006 l -0.40039,-35.06641 z m 63.24804,70.71289 c 0.01,0.0538 0.0143,0.10788 0.0215,0.16211 0.0295,-0.01 0.055,-0.022 0.0703,-0.0371 0.0165,-0.0162 0.0272,-0.0309 0.043,-0.0469 -0.0539,-0.0486 -0.10046,-0.0787 -0.13477,-0.0781 z m -62.94922,0.76757 c 0.004,-0.0172 -0.0123,0.0333 -0.0137,0.0508 -3.2e-4,0.004 -7e-5,0.008 0,0.0117 0.004,-0.021 0.009,-0.0414 0.0137,-0.0625 z m 0.27735,0.22852 c -0.01,0.009 -0.0196,0.0168 -0.0293,0.0254 0.008,0.0215 -0.007,0.0531 0.006,0.0723 0.001,-0.004 8.8e-4,-0.009 0.002,-0.0137 0.003,-0.0206 0.007,-0.0407 0.01,-0.0625 0.002,-0.002 0.005,-0.004 0.008,-0.006 0.001,-0.005 0.003,-0.0104 0.004,-0.0156 z m 63.87695,5.66406 c -0.008,0.009 -0.0161,0.0179 -0.0234,0.0274 -0.004,0.005 0.013,-0.004 0.0156,-0.01 0.003,-0.006 0.005,-0.0118 0.008,-0.0176 z" />
    <path
       d="M9500 5705 l0 -305 905 0 905 0 0 305 0 305 -905 0 -905 0 0 -305z m1800 0 l0 -295 -895 0 -895 0 0 295 0 295 895 0 895 0 0 -295z"
       id="path694" />
    <path
       d="M0 5205 l0 -305 855 0 855 0 0 305 0 305 -855 0 -855 0 0 -305z m1700 0 l0 -295 -845 0 -845 0 0 295 0 295 845 0 845 0 0 -295z"
       id="path742" />
    <path
       d="M9500 4910 l0 -300 -29 0 c-33 0 -50 17 -62 63 -8 31 -9 31 -4 -6 8 -72 -40 -67 666 -67 l639 0 0 305 0 305 -605 0 -605 0 0 -300z m1200 -5 l0 -295 -595 0 -595 0 0 295 0 295 595 0 595 0 0 -295z"
       id="path796" />
    <path
       d="M0 4505 l0 -305 855 0 855 0 0 305 0 305 -855 0 -855 0 0 -305z m1700 0 l0 -295 -845 0 -845 0 0 295 0 295 845 0 845 0 0 -295z"
       id="path842" />
    <path
       d="M6885 4520 c-19 -37 -19 -51 0 -44 13 5 15 -44 15 -406 l0 -412 29 -29 29 -29 237 0 c207 0 236 -2 231 -15 -7 -19 7 -19 44 0 l30 16 0 -96 0 -95 -45 0 -44 0 17 -32 c9 -18 18 -35 20 -38 2 -2 14 10 28 28 l25 32 605 0 604 0 0 305 0 305 -605 0 -605 0 0 -200 0 -201 -30 16 c-37 19 -51 19 -43 -1 5 -13 -21 -15 -235 -12 -216 3 -243 5 -259 21 -17 16 -18 50 -21 434 -2 370 -1 415 13 410 8 -4 15 -2 15 4 0 12 -29 69 -35 69 -2 0 -11 -13 -20 -30z m1815 -815 l0 -295 -595 0 -595 0 0 295 0 295 595 0 595 0 0 -295z"
       id="path904" />
    <path
       d="M10321 4514 c-20 -25 -21 -39 -21 -288 0 -144 -4 -268 -10 -276 -5 -8 -24 -20 -42 -27 l-33 -11 38 -1 c20 -1 38 -2 39 -3 1 -2 5 -115 8 -253 l6 -250 -2 250 c-1 138 -2 259 -2 270 -2 126 15 573 21 583 5 6 15 12 23 12 8 0 14 5 14 10 0 18 -18 10 -39 -16z"
       id="path938" />
    <path
       d="M10374 4532 c4 -3 14 -7 22 -8 9 -1 13 0 10 4 -4 3 -14 7 -22 8 -9 1 -13 0 -10 -4z"
       id="path940" />
    <path
       d="M10400 3910 l0 -600 -29 0 c-33 0 -50 17 -62 63 -8 31 -9 31 -4 -6 5 -51 20 -67 60 -67 24 0 35 -5 38 -17 3 -10 5 35 6 100 l1 117 595 0 595 0 0 -105 0 -105 -562 -1 c-310 -1 -575 0 -590 1 -16 1 -28 -3 -28 -7 0 -5 15 -8 33 -7 17 1 285 3 595 3 l562 1 0 615 0 615 -605 0 -605 0 0 -600z m1200 460 l0 -130 -595 0 -595 0 0 130 0 130 595 0 595 0 0 -130z m-562 -149 l562 -1 0 -105 0 -105 -595 0 -595 0 0 103 c0 57 3 106 6 110 3 3 18 4 32 2 15 -2 280 -4 590 -4z m562 -351 l0 -130 -595 0 -595 0 0 130 0 130 595 0 595 0 0 -130z m-562 -149 l562 -1 0 -105 0 -105 -595 0 -595 0 0 103 c0 57 2 106 5 108 2 3 17 4 32 3 15 -1 281 -2 591 -3z"
       id="path942" />
    <path
       d="M8819 4293 c-12 -13 -14 -166 -14 -902 l0 -886 5 881 c4 711 8 884 18 897 8 9 30 18 50 20 l37 4 -41 1 c-28 1 -46 -3 -55 -15z"
       id="path1074" />
    <path
       d="M0 3805 l0 -305 889 0 c982 0 908 -5 916 67 5 37 4 37 -4 6 -12 -46 -29 -63 -62 -63 l-29 0 0 300 0 300 -855 0 -855 0 0 -305z m1700 0 l0 -295 -845 0 -845 0 0 295 0 295 845 0 845 0 0 -295z"
       id="path1076" />
    <path
       d="M9000 3930 l0 -130 605 0 605 0 0 130 0 130 -605 0 -605 0 0 -130z m1200 0 l0 -120 -595 0 -595 0 0 120 0 120 595 0 595 0 0 -120z"
       id="path1102" />
    <path
       id="path1124"
       style="stroke-width:0.133333"
       transform="matrix(7.5,0,0,-7.5,0,10010)"
       d="m 533.33398,813.33398 v 24 24 l 29.06641,0.13282 c 27.6,0.13333 28.66563,0.13229 24.26563,2.26562 -3.46667,1.46667 -3.99896,2.26849 -2.26563,2.53516 1.2,0.4 2.26563,0.79922 2.26563,1.19922 0,0.53333 -78.53282,90.00052 -84.13282,95.86718 -2.13333,2.13334 -2.79909,2.2655 -3.73242,0.79883 -1.33333,-2.13333 -2.13346,-0.93255 -3.4668,4.80078 l -0.93359,4.40039 H 373.86719 253.33398 V 1074 1174.666 H 394 534.5332 l 0.40039,-10.666 0.40039,-10.5332 43.33204,54.1328 c 38.26666,47.8667 43.86783,54.4008 49.20117,56.8008 l 6.13281,2.666 34,-4.2656 c 39.33333,-4.8 37.86745,-4.8015 36.80078,-2.1348 -0.93333,2.5333 0.66667,2.5333 4,0 1.33333,-1.0667 2.93294,-2 3.59961,-2 0.53333,0 0.93359,14.134 0.93359,31.334 v 31.334 h 184 184.00002 V 1240.666 1160 H 928 c -84.26667,0 -153.33398,-0.3997 -153.33398,-1.0664 0,-0.5333 0.5345,-2.934 1.20117,-5.334 1.2,-3.8667 1.0664,-4.2657 -0.9336,-3.7324 -2,0.6667 -3.06718,-2.6669 -7.86718,-26.9336 -2.93334,-15.2 -5.20026,-27.9999 -4.9336,-28.5332 0.26667,-0.4 13.33412,-8.4011 28.80078,-17.7344 15.6,-9.4667 31.06654,-19.7336 34.53321,-22.9336 4,-3.8666 10.93398,-14.3984 21.33398,-32.3984 L 862,994.66602 h 24.5332 c 21.2,0 24.26628,0.26666 23.59961,2 -0.93333,2.53333 0.93386,2.53333 5.86719,0 l 4,-2.13282 V 1058 v 63.334 h 87.334 87.332 v -84 -84.00002 H 1007.334 920 v 20 20.13282 l -4,-2.13282 c -4.93333,-2.53333 -6.80052,-2.53333 -5.86719,0 0.66667,1.73334 -2.39922,2 -23.19922,2 h -24.13281 l 6.93164,-12.26757 C 881.59909,959.99974 875.06641,963.60013 975.06641,923.4668 1023.5997,904.00013 1062.6667,888.13333 1062,888 c -3.7333,-0.13333 -175.06732,69.73307 -179.33398,73.06641 -2.53334,2.13333 -8.53256,10.13333 -13.19922,18 l -8.53321,14.26757 h -11.86718 c -10.13334,0 -11.86589,-0.26666 -11.19922,-2 0.93333,-2.53333 -0.93386,-2.53333 -5.86719,0 l -4,2.13282 v -16.13282 -16 h 6 5.86719 l -2.26758,-4.40039 c -1.2,-2.26666 -2.39935,-4.53359 -2.66602,-4.93359 -0.26666,-0.26667 -1.8677,1.33242 -3.73437,3.73242 L 827.86719,960 h -40.66797 c -22.26667,0 -40.5332,-0.39974 -40.5332,-1.06641 0.13333,-0.53333 0.93333,-2.40091 2,-4.26757 2.4,-4.26667 2.4,-5.46654 0,-4.53321 -1.73334,0.66667 -2,-3.73216 -2,-34.79883 0,-31.06666 0.26666,-35.46744 2,-34.80078 2.53333,0.93334 2.53437,0.66745 -0.26563,-5.19922 -2.66667,-5.6 -3.3345,-5.73307 -5.20117,-1.0664 -2,5.33333 -1.99909,6.4 0.26758,6 1.6,-0.26667 1.86718,4.93255 1.86718,35.19922 0,30.93333 -0.26666,35.33268 -2,34.66601 -2.53333,-0.93333 -2.53333,0.93386 0,5.86719 l 2.13282,4 H 706 666.66602 v 34 34 h 40 c 22,0 40,0.3997 40,1.0664 0,0.5333 -0.53256,2.934 -1.19922,5.334 -1.2,3.8667 -1.06641,4.2657 0.93359,3.7324 2,-0.6667 3.06667,2.6668 8,27.4668 3.06667,15.4667 5.46589,28.2671 5.19922,28.4004 -0.13333,0.1333 -28.53307,17.0658 -63.06641,37.7324 -54.13333,32.5334 -63.60065,37.7337 -69.33398,38.4004 -6,0.6667 -9.86589,-0.667 -49.19922,-16.4004 l -42.66602,-17.1992 -0.40039,-81.5996 -0.26757,-81.59962 -19.06641,-0.13476 c -18.4,-0.13333 -18.79896,-0.13229 -14.26563,-2.26563 3.46667,-1.46666 3.99844,-2.26653 2.39844,-2.5332 -1.33333,-0.4 -2.39844,-0.80117 -2.39844,-1.20117 0,-0.53333 78.53282,-89.99857 84.13282,-95.86524 2.13333,-2.13333 2.79909,-2.26744 3.73242,-0.80078 1.33333,2.13334 2.13346,0.93308 3.4668,-4.93359 l 0.93359,-4.26563 h 30.5332 30.53321 v -24 -24 H 594 Z m 1.33204,1.33204 H 594 653.33398 V 837.33398 860 H 594 534.66602 v -22.66602 z m 386.66796,140 h 86.00002 86 V 994 v 39.334 h -86 -86.00002 V 994 Z M 668,961.33398 h 79.33398 79.33204 V 994 1026.666 H 747.33398 668 V 994 Z M 254.66602,974.66602 H 334 413.33398 V 1014 1053.334 H 334 254.66602 V 1014 Z m 160,0 H 474 533.33398 v 80.53318 80.668 l -7.60156,-3.2012 c -6.4,-2.5333 -8.93333,-4.6668 -16,-13.4668 -7.06666,-8.9333 -8.13177,-10.8 -6.39844,-12 1.6,-1.2 1.06602,-1.8652 -3.33398,-3.8652 l -5.33398,-2.4004 V 1090.4004 1080 h -120 -120 v -12.666 -12.668 h 80 80 v -40 z M 828,994.5332 l 4,2.13282 c 2.13333,1.06666 4.53255,2 5.19922,2 0.8,0 1.06797,-0.93334 0.66797,-2 -0.66667,-1.73334 1.06549,-2 10.79883,-2 h 11.60156 l -3.33399,5.99998 c -19.2,34.2667 -26.53294,46.134 -31.59961,51.334 -6.66666,6.9333 -62.4,40.9331 -64,39.0664 -0.93333,-1.0667 -10.66796,-48.6661 -10.66796,-52.1328 0,-0.8 0.93476,-1.5996 2.13476,-1.5996 1.73333,0 1.46602,-0.9347 -1.33398,-4.668 L 747.86719,1028 h 40 H 828 v -16.666 z m 179.334,40.1328 c 85.0667,0 86,0 86,2.668 0,2.6667 -0.9333,2.666 -86,2.666 -85.0667,0 -86.00002,7e-4 -86.00002,-2.666 0,-2.6667 0.93332,-2.668 86.00002,-2.668 z m -86.00002,6.668 h 86.00002 86 v 39.332 39.334 h -86 -86.00002 v -39.334 z m -666.66796,40 H 374 493.33398 V 1120.666 1160 H 374 254.66602 v -39.334 z m 504.66796,15.1992 c 0.66667,0.1333 3.46563,11.3336 6.26563,24.9336 5.73333,28.2667 5.73359,29.1992 2.93359,29.1992 -1.73333,0 -1.46601,0.9347 1.33399,4.668 l 3.59961,4.666 h -30 -30.13282 v 47.334 c 0,28.5333 -0.5345,47.332 -1.20117,47.332 -0.66666,0 -2.93216,-0.6653 -4.79883,-1.332 -3.06666,-1.2 -3.46744,-1.0669 -2.80078,1.0664 0.8,2.2667 -1.86705,2.7988 -34.40039,6.7988 -39.73333,4.9334 -41.0664,4.9337 -49.0664,-3.5996 -2.53334,-2.6667 -23.06628,-27.9995 -45.59961,-56.1328 -40.66667,-50.9333 -40.80078,-51.2001 -40.80078,-57.4668 v -6.4004 l 43.0664,17.334 c 39.46667,15.7333 43.4668,17.1999 49.4668,16.5332 7.2,-0.8 9.73346,-2.1333 85.4668,-48 24.93333,-15.0667 45.86796,-27.2003 46.66796,-26.9336 z m -263.95312,11.8262 c 0.077,-0.01 0.15208,0.1742 0.21875,0.5742 0.26667,1.7333 1.06771,3.0664 1.73437,3.0664 0.66667,0 1.33295,-0.6663 1.59961,-1.5996 0.26667,-0.8 3.86667,2.6657 8,7.7324 4.13334,5.0667 7.33256,9.333 7.19922,9.5996 -0.26666,0.1334 -2.66536,-0.6657 -5.33203,-1.7324 -4.13333,-1.7333 -4.80013,-2.4 -3.4668,-4 1.46667,-1.7333 0.80013,-2 -4.5332,-2 h -6.13476 l 0.13476,-7.0664 c 0.1,-2.8 0.34916,-4.5492 0.58008,-4.5742 z m -0.71484,13.7734 4,3.8672 c 3.2,3.0667 4,3.3335 4,1.4668 0,-1.7333 0.66692,-2.134 2.93359,-1.334 8.53333,2.6667 12.00039,5.2012 18.40039,13.2012 3.73333,4.8 7.20013,8.666 7.4668,8.666 1.06666,0 -0.93321,-2.9324 -6.53321,-9.7324 -2.8,-3.4667 -4.9332,-6.2676 -4.5332,-6.2676 0.4,0 3.46602,1.1999 6.66602,2.5332 l 6,2.5332 0.13281,18.1328 0.13476,18.1348 H 394 254.66602 v -6 -6 h 120 120 v -19.6016 z m 220,39.2012 H 897.33398 1080 V 1240.666 1320 H 897.33398 714.66602 v -79.334 z" />
    <path
       d="M7968 3358 c9 -18 18 -35 19 -37 1 -2 13 10 27 25 l25 29 -22 7 c-12 3 -32 6 -44 7 -22 1 -22 1 -5 -31z"
       id="path1550" />
    <path
       id="path1552"
       style="stroke-width:0.133333"
       transform="matrix(7.5,0,0,-7.5,0,10010)"
       d="m 990,885.33398 c -0.66667,0 -16.66732,7.06524 -35.33398,15.86524 l -34,15.73437 -0.0234,-0.15039 c -0.0288,0.0325 -0.0572,0.0569 -0.084,0.0684 -0.14377,0.0613 -0.29964,0.0913 -0.44921,0.13672 -0.0926,-0.0315 -0.18482,-0.0624 -0.27735,-0.0937 0.0142,0.009 0.061,0.037 0.0488,0.041 -0.0724,0.0239 -0.0926,-0.0268 -0.0352,0.0488 0.0494,-0.002 -0.12383,0.0654 -0.21484,0.11328 0.0463,-0.0363 0.11512,-0.10609 0.0801,-0.0879 -0.0728,0.0378 -0.14189,0.0853 -0.20899,0.13281 0.0273,-0.004 0.0527,-0.0118 0.0781,-0.0195 -0.0984,0.0475 -0.1152,0.0776 -0.20117,0.10547 h -0.002 c -0.0149,0.0104 -0.0298,0.0213 -0.0449,0.0312 -0.18756,0.0382 -0.37604,-0.006 -0.56445,0.002 -0.0341,0.002 -0.0675,0.002 -0.10156,0.002 V 918 L 878,936.5332 c -22.4,10.26667 -40.4,18.93256 -40,19.19922 0.4,0.4 144.93398,-65.59922 151.33398,-69.19922 1.06667,-0.66666 1.46602,-1.06588 0.66602,-1.19922 z" />
    <path
       d="M9000 2780 l0 -130 1405 0 1405 0 0 130 0 130 -1405 0 -1405 0 0 -130z m2800 0 l0 -120 -1395 0 -1395 0 0 120 0 120 1395 0 1395 0 0 -120z"
       id="path1580" />
    <path
       d="M8801 2480 c-2 -37 -27 -68 -59 -73 -22 -3 -19 -4 11 -6 20 0 38 -2 39 -3 2 -2 5 -406 8 -898 l5 -895 3 883 c1 564 -2 890 -8 902 -6 12 -6 28 1 49 6 16 9 38 6 48 -3 13 -5 10 -6 -7z"
       id="path1654" />
    <path
       d="M9000 2230 l0 -130 605 0 605 0 0 130 0 130 -605 0 -605 0 0 -130z m1200 0 l0 -120 -595 0 -595 0 0 120 0 120 595 0 595 0 0 -120z"
       id="path1656" />
    <path
       d="M9000 1780 l0 -130 605 0 605 0 0 130 0 130 -605 0 -605 0 0 -130z m1200 0 l0 -120 -595 0 -595 0 0 120 0 120 595 0 595 0 0 -120z"
       id="path1664" />
    <path
       d="M3055 1145 c-27 -36 -27 -38 -7 -33 12 4 22 3 22 0 0 -4 -14 -101 -30 -217 -17 -115 -30 -211 -30 -212 0 -1 -7 0 -17 4 -17 7 -17 8 3 -57 6 -20 2 -20 -445 -20 l-451 0 0 -305 0 -305 755 0 755 0 0 305 0 305 -301 0 -301 0 25 34 c27 34 27 49 0 39 -11 -5 -13 1 -9 28 3 19 15 102 26 184 30 220 29 217 46 211 17 -7 17 9 1 48 l-13 29 -29 -38z m545 -840 l0 -295 -745 0 -745 0 0 295 0 295 745 0 745 0 0 -295z"
       id="path1678" />
    <path
       d="M9000 980 l0 -130 905 0 905 0 0 130 0 130 -905 0 -905 0 0 -130z m1800 0 l0 -120 -895 0 -895 0 0 120 0 120 895 0 895 0 0 -120z"
       id="path1718" />
    <path
       d="M8805 567 c6 -54 20 -67 69 -65 l41 1 -37 4 c-41 5 -57 19 -69 66 -8 31 -9 31 -4 -6z"
       id="path1760" />
    <text
       xml:space="preserve"
       style="font-style:normal;font-weight:normal;font-size:100px;line-height:1.25;font-family:sans-serif;fill:#000000;fill-opacity:1;stroke:none;stroke-width:7.5"
       x="9309.291"
       y="-9132.0215"
       id="text4424"
       transform="scale(1,-1)"><tspan
         sodipodi:role="line"
         id="tspan4422"
         style="font-size:100px;stroke-width:7.5"
         x="9309.291"
         y="-9132.0215">API</tspan></text>
    <text
       xml:space="preserve"
       style="font-size:99.9997px;line-height:1.25;font-family:sans-serif;stroke-width:7.5"
       x="7805.7559"
       y="-7612.2617"
       id="text13066"
       transform="scale(1,-1)"><tspan
         sodipodi:role="line"
         id="tspan13064"
         style="stroke-width:7.5"
         x="7805.7559"
         y="-7612.2617">Reporting Tools</tspan></text>
    <text
       xml:space="preserve"
       style="font-size:99.9997px;line-height:1.25;font-family:sans-serif;stroke-width:7.5"
       x="6813.0454"
       y="-9799.2871"
       id="text15934"
       transform="scale(1,-1)"><tspan
         sodipodi:role="line"
         id="tspan15932"
         style="stroke-width:7.5"
         x="6813.0454"
         y="-9799.2871">File-Base CM</tspan><tspan
         sodipodi:role="line"
         style="stroke-width:7.5"
         x="6813.0454"
         y="-9674.2871"
         id="tspan15936">V0.1,V0.2,V10</tspan></text>
    <text
       xml:space="preserve"
       style="font-size:99.9997px;line-height:1.25;font-family:sans-serif;stroke-width:7.5"
       x="8662.6348"
       y="-9729.0498"
       id="text18828"
       transform="scale(1,-1)"><tspan
         sodipodi:role="line"
         id="tspan18826"
         style="stroke-width:7.5"
         x="8662.6348"
         y="-9729.0498">Digital of Simulation</tspan></text>
    <text
       xml:space="preserve"
       style="font-size:99.9997px;line-height:1.25;font-family:sans-serif;stroke-width:7.5"
       x="4764.4492"
       y="-6911.7422"
       id="text21246"
       transform="scale(1,-1)"><tspan
         sodipodi:role="line"
         id="tspan21244"
         style="stroke-width:7.5"
         x="4764.4492"
         y="-6911.7422">Adaptors</tspan></text>
    <text
       xml:space="preserve"
       style="font-size:99.9997px;line-height:1.25;font-family:sans-serif;stroke-width:7.5"
       x="3242.6348"
       y="-5983.0454"
       id="text26234"
       transform="scale(1,-1)"><tspan
         sodipodi:role="line"
         id="tspan26232"
         style="stroke-width:7.5"
         x="3242.6348"
         y="-5983.0454">Adaptors</tspan></text>
    <text
       xml:space="preserve"
       style="font-size:99.9997px;line-height:1.25;font-family:sans-serif;stroke-width:7.5"
       x="6340.8931"
       y="-6041.5767"
       id="text29682"
       transform="scale(1,-1)"><tspan
         sodipodi:role="line"
         id="tspan29680"
         style="stroke-width:7.5"
         x="6340.8931"
         y="-6041.5767">Adaptors</tspan></text>
    <text
       xml:space="preserve"
       style="font-size:99.9997px;line-height:1.25;font-family:sans-serif;stroke-width:7.5"
       x="3227.1682"
       y="-4175.4834"
       id="text35996"
       transform="scale(1,-1)"><tspan
         sodipodi:role="line"
         id="tspan35994"
         style="stroke-width:7.5"
         x="3227.1682"
         y="-4175.4834">Adaptors</tspan></text>
    <text
       xml:space="preserve"
       style="font-size:99.9997px;line-height:1.25;font-family:sans-serif;stroke-width:7.5"
       x="4101.0942"
       y="-3719.8345"
       id="text39944"
       transform="scale(1,-1)"><tspan
         sodipodi:role="line"
         id="tspan39942"
         style="stroke-width:7.5"
         x="4101.0942"
         y="-3719.8345">Adaptors</tspan></text>
    <text
       xml:space="preserve"
       style="font-size:99.9997px;line-height:1.25;font-family:sans-serif;stroke-width:7.5"
       x="5220.9932"
       y="-3854.4565"
       id="text42176"
       transform="scale(1,-1)"><tspan
         sodipodi:role="line"
         id="tspan42174"
         style="stroke-width:7.5"
         x="5220.9932"
         y="-3854.4565">Adaptors</tspan></text>
    <text
       xml:space="preserve"
       style="font-size:99.9997px;line-height:1.25;font-family:sans-serif;stroke-width:7.5"
       x="6331.1377"
       y="-4588.0488"
       id="text45676"
       transform="scale(1,-1)"><tspan
         sodipodi:role="line"
         id="tspan45674"
         style="stroke-width:7.5"
         x="6331.1377"
         y="-4588.0488">Adaptors</tspan></text>
    <text
       xml:space="preserve"
       style="font-size:99.9997px;line-height:1.25;font-family:sans-serif;letter-spacing:0px;stroke-width:7.5"
       x="8261.0234"
       y="-6097.4648"
       id="text51121"
       transform="scale(1,-1)"><tspan
         sodipodi:role="line"
         id="tspan51119"
         style="stroke-width:7.5"
         x="8261.0234"
         y="-6097.4648">Design/Develop</tspan></text>
    <text
       xml:space="preserve"
       style="font-size:99.9997px;line-height:1.25;font-family:sans-serif;letter-spacing:0px;stroke-width:7.5"
       x="9579.917"
       y="-7201.1416"
       id="text52813"
       transform="scale(1,-1)"><tspan
         sodipodi:role="line"
         id="tspan52811"
         style="stroke-width:7.5"
         x="9579.917"
         y="-7201.1416">Conceptual Design</tspan></text>
    <text
       xml:space="preserve"
       style="font-size:99.9997px;line-height:1.25;font-family:sans-serif;letter-spacing:0px;stroke-width:7.5"
       x="9618.5459"
       y="-6561.0093"
       id="text55441"
       transform="scale(1,-1)"><tspan
         sodipodi:role="line"
         id="tspan55439"
         style="stroke-width:7.5"
         x="9618.5459"
         y="-6561.0093">Virtual Knowledge Graph Design</tspan></text>
    <text
       xml:space="preserve"
       style="font-size:99.9997px;line-height:1.25;font-family:sans-serif;letter-spacing:0px;stroke-width:7.5"
       x="9613.0283"
       y="-5694.6226"
       id="text57541"
       transform="scale(1,-1)"><tspan
         sodipodi:role="line"
         id="tspan57539"
         style="stroke-width:7.5"
         x="9613.0283"
         y="-5694.6226">Engineering &amp; Design</tspan></text>
    <text
       xml:space="preserve"
       style="font-size:99.9997px;line-height:1.25;font-family:sans-serif;letter-spacing:0px;stroke-width:7.5"
       x="9618.5459"
       y="-4916.5298"
       id="text60565"
       transform="scale(1,-1)"><tspan
         sodipodi:role="line"
         id="tspan60563"
         style="stroke-width:7.5"
         x="9618.5459"
         y="-4916.5298">Generative Design</tspan></text>
    <text
       xml:space="preserve"
       style="font-size:99.9997px;line-height:1.25;font-family:sans-serif;letter-spacing:0px;stroke-width:7.5"
       x="9132.9277"
       y="-3928.7393"
       id="text64105"
       transform="scale(1,-1)"><tspan
         sodipodi:role="line"
         id="tspan64103"
         style="stroke-width:7.5"
         x="9132.9277"
         y="-3928.7393">Simulation</tspan></text>
    <text
       xml:space="preserve"
       style="font-size:99.9997px;line-height:1.25;font-family:sans-serif;letter-spacing:0px;stroke-width:7.5"
       x="10490.451"
       y="-4381.2466"
       id="text67447"
       transform="scale(1,-1)"><tspan
         sodipodi:role="line"
         id="tspan67445"
         style="stroke-width:7.5"
         x="10490.451"
         y="-4381.2466">Static Analysis</tspan></text>
    <text
       xml:space="preserve"
       style="font-size:99.9997px;line-height:1.25;font-family:sans-serif;letter-spacing:0px;stroke-width:7.5"
       x="10467.352"
       y="-4121.749"
       id="text69021"
       transform="scale(1,-1)"><tspan
         sodipodi:role="line"
         id="tspan69019"
         style="stroke-width:7.5"
         x="10467.352"
         y="-4121.749">Dynamic Analysis</tspan></text>
    <text
       xml:space="preserve"
       style="font-size:99.9997px;line-height:1.25;font-family:sans-serif;letter-spacing:0px;stroke-width:7.5"
       x="10469.302"
       y="-3842.75"
       id="text73143"
       transform="scale(1,-1)"><tspan
         sodipodi:role="line"
         id="tspan73141"
         style="stroke-width:7.5"
         x="10469.302"
         y="-3842.75">Thermal Analysis</tspan></text>
    <text
       xml:space="preserve"
       style="font-size:99.9997px;line-height:1.25;font-family:sans-serif;letter-spacing:0px;stroke-width:7.5"
       x="10502.47"
       y="-3604.7227"
       id="text74349"
       transform="scale(1,-1)"><tspan
         sodipodi:role="line"
         id="tspan74347"
         style="stroke-width:7.5"
         x="10502.47"
         y="-3604.7227">Electrical</tspan></text>
    <text
       xml:space="preserve"
       style="font-size:99.9997px;line-height:1.25;font-family:sans-serif;letter-spacing:0px;stroke-width:7.5"
       x="10520.029"
       y="-3394.0098"
       id="text77501"
       transform="scale(1,-1)"><tspan
         sodipodi:role="line"
         id="tspan77499"
         style="stroke-width:7.5"
         x="10520.029"
         y="-3394.0098">Structual</tspan></text>
    <text
       xml:space="preserve"
       style="font-size:99.9997px;line-height:1.25;font-family:sans-serif;letter-spacing:0px;stroke-width:7.5"
       x="9185.5156"
       y="-2756.0186"
       id="text80955"
       transform="scale(1,-1)"><tspan
         sodipodi:role="line"
         id="tspan80953"
         style="stroke-width:7.5"
         x="9185.5156"
         y="-2756.0186">Scheduling/Operation Simulation</tspan></text>
    <text
       xml:space="preserve"
       style="font-size:99.9997px;line-height:1.25;font-family:sans-serif;letter-spacing:0px;stroke-width:7.5"
       x="9314.2842"
       y="-2198.0203"
       id="text82383"
       transform="scale(1,-1)"><tspan
         sodipodi:role="line"
         id="tspan82381"
         style="stroke-width:7.5"
         x="9314.2842"
         y="-2198.0203">LCC</tspan></text>
    <text
       xml:space="preserve"
       style="font-size:99.9997px;line-height:1.25;font-family:sans-serif;letter-spacing:0px;stroke-width:7.5"
       x="9220.6338"
       y="-1788.3018"
       id="text84293"
       transform="scale(1,-1)"><tspan
         sodipodi:role="line"
         id="tspan84291"
         style="stroke-width:7.5"
         x="9220.6338"
         y="-1788.3018">LCA</tspan></text>
    <text
       xml:space="preserve"
       style="font-size:99.9997px;line-height:1.25;font-family:sans-serif;letter-spacing:0px;stroke-width:7.5"
       x="9084.0605"
       y="-972.76459"
       id="text87779"
       transform="scale(1,-1)"><tspan
         sodipodi:role="line"
         id="tspan87777"
         style="stroke-width:7.5"
         x="9084.0605"
         y="-972.76459">Supply Chain/ Logistic-----</tspan></text>
    <text
       xml:space="preserve"
       style="font-size:90px;line-height:1.25;font-family:sans-serif;letter-spacing:0px;stroke-width:7.5"
       x="1925.6804"
       y="-5409.4385"
       id="text92807"
       transform="scale(1,-1)"><tspan
         sodipodi:role="line"
         id="tspan92805"
         style="font-size:90px;stroke-width:7.5"
         x="1925.6804"
         y="-5409.4385">Authoring</tspan><tspan
         sodipodi:role="line"
         style="font-size:90px;stroke-width:7.5"
         x="1925.6804"
         y="-5296.9385"
         id="tspan95983">Tools</tspan></text>
    <text
       xml:space="preserve"
       style="font-size:99.9997px;line-height:1.25;font-family:sans-serif;letter-spacing:0px;stroke-width:7.5"
       x="103.40533"
       y="-6796.6309"
       id="text98677"
       transform="scale(1,-1)"><tspan
         sodipodi:role="line"
         id="tspan98675"
         style="stroke-width:7.5"
         x="103.40533"
         y="-6796.6309">Core Vocabularies</tspan></text>
    <text
       xml:space="preserve"
       style="font-size:99.9997px;line-height:1.25;font-family:sans-serif;letter-spacing:0px;stroke-width:7.5"
       x="120.96472"
       y="-5953.7793"
       id="text100369"
       transform="scale(1,-1)"><tspan
         sodipodi:role="line"
         id="tspan100367"
         style="stroke-width:7.5"
         x="120.96472"
         y="-5953.7793">Foundation Vocabularies</tspan></text>
    <text
       xml:space="preserve"
       style="font-size:99.9997px;line-height:1.25;font-family:sans-serif;letter-spacing:0px;stroke-width:7.5"
       x="110.02144"
       y="-5243.1528"
       id="text103725"
       transform="scale(1,-1)"><tspan
         sodipodi:role="line"
         id="tspan103723"
         style="stroke-width:7.5"
         x="110.02144"
         y="-5243.1528">Discipline Vocabularies</tspan></text>
    <text
       xml:space="preserve"
       style="font-size:99.9997px;line-height:1.25;font-family:sans-serif;letter-spacing:0px;stroke-width:7.5"
       x="103.28543"
       y="-4517.9092"
       id="text105693"
       transform="scale(1,-1)"><tspan
         sodipodi:role="line"
         id="tspan105691"
         style="stroke-width:7.5"
         x="103.28543"
         y="-4517.9092">Application Vocabularies</tspan></text>
    <text
       xml:space="preserve"
       style="font-size:99.9997px;line-height:1.25;font-family:sans-serif;letter-spacing:0px;stroke-width:7.5"
       x="175.13615"
       y="-3785.9302"
       id="text106953"
       transform="scale(1,-1)"><tspan
         sodipodi:role="line"
         id="tspan106951"
         style="stroke-width:7.5"
         x="175.13615"
         y="-3785.9302">Deseription</tspan></text>
    <text
       xml:space="preserve"
       style="font-size:99.9997px;line-height:1.25;font-family:sans-serif;letter-spacing:0px;stroke-width:7.5"
       x="4207.7588"
       y="-5559.7451"
       id="text110401"
       transform="scale(1,-1)"><tspan
         sodipodi:role="line"
         id="tspan110399"
         style="stroke-width:7.5"
         x="4207.7588"
         y="-5559.7451">CAESAR Integration Service</tspan></text>
    <text
       xml:space="preserve"
       style="font-size:99.9997px;line-height:1.25;font-family:sans-serif;letter-spacing:0px;stroke-width:7.5"
       x="4095.4922"
       y="-5002.9019"
       id="text112225"
       transform="scale(1,-1)"><tspan
         sodipodi:role="line"
         id="tspan112223"
         style="stroke-width:7.5"
         x="4095.4922"
         y="-5002.9019">Configuration management=</tspan></text>
    <text
       xml:space="preserve"
       style="font-size:99.9997px;line-height:1.25;font-family:sans-serif;letter-spacing:0px;stroke-width:7.5"
       x="1996.1033"
       y="-3276.2388"
       id="text116635"
       transform="scale(1,-1)"><tspan
         sodipodi:role="line"
         id="tspan116633"
         style="stroke-width:7.5"
         x="1996.1033"
         y="-3276.2388">CAESAR Authoring </tspan><tspan
         sodipodi:role="line"
         style="stroke-width:7.5"
         x="1996.1033"
         y="-3151.2393"
         id="tspan116637">WB</tspan></text>
    <text
       xml:space="preserve"
       style="font-size:99.9997px;line-height:1.25;font-family:sans-serif;letter-spacing:0px;stroke-width:7.5"
       x="1964.6686"
       y="-2528.5422"
       id="text118395"
       transform="scale(1,-1)"><tspan
         sodipodi:role="line"
         id="tspan118393"
         style="stroke-width:7.5"
         x="1964.6686"
         y="-2528.5422">AR/VR Operation</tspan></text>
    <text
       xml:space="preserve"
       style="font-size:99.9997px;line-height:1.25;font-family:sans-serif;letter-spacing:0px;stroke-width:7.5"
       x="1959.2118"
       y="-1738.1244"
       id="text120087"
       transform="scale(1,-1)"><tspan
         sodipodi:role="line"
         id="tspan120085"
         style="stroke-width:7.5"
         x="1959.2118"
         y="-1738.1244">Maintenance / Training</tspan></text>
    <text
       xml:space="preserve"
       style="font-size:99.9997px;line-height:1.25;font-family:sans-serif;letter-spacing:0px;stroke-width:7.5"
       x="2162.4365"
       y="-417.16583"
       id="text123969"
       transform="scale(1,-1)"><tspan
         sodipodi:role="line"
         id="tspan123967"
         style="stroke-width:7.5"
         x="2162.4365"
         y="-417.16583">Knowledge Dataset</tspan></text>
    <text
       xml:space="preserve"
       style="font-size:99.9997px;line-height:1.25;font-family:sans-serif;letter-spacing:0px;stroke-width:7.5"
       x="4239.1372"
       y="-1493.62"
       id="text127695"
       transform="scale(1,-1)"><tspan
         sodipodi:role="line"
         id="tspan127693"
         style="stroke-width:7.5"
         x="4239.1372"
         y="-1493.62">DT</tspan></text>
    <text
       xml:space="preserve"
       style="font-size:99.9997px;line-height:1.25;font-family:sans-serif;letter-spacing:0px;stroke-width:7.5"
       x="5501.0718"
       y="-1109.4904"
       id="text132039"
       transform="scale(1,-1)"><tspan
         sodipodi:role="line"
         id="tspan132037"
         style="stroke-width:7.5"
         x="5501.0718"
         y="-1109.4904">Smart Connected Worker Human Machine</tspan><tspan
         sodipodi:role="line"
         style="stroke-width:7.5"
         x="5501.0718"
         y="-984.49072"
         id="tspan132041">Interaction AI-Assisted System</tspan></text>
    <text
       xml:space="preserve"
       style="font-size:99.9997px;line-height:1.25;font-family:sans-serif;letter-spacing:0px;stroke-width:7.5"
       x="6935.0381"
       y="-2697.0908"
       id="text137191"
       transform="scale(1,-1)"><tspan
         sodipodi:role="line"
         id="tspan137189"
         style="stroke-width:7.5"
         x="6935.0381"
         y="-2697.0908">Energy Disaggregation</tspan></text>
    <text
       xml:space="preserve"
       style="font-size:99.9997px;line-height:1.25;font-family:sans-serif;letter-spacing:0px;stroke-width:7.5"
       x="6998.5459"
       y="-2052.488"
       id="text138433"
       transform="scale(1,-1)"><tspan
         sodipodi:role="line"
         id="tspan138431"
         style="stroke-width:7.5"
         x="6998.5459"
         y="-2052.488">Failure Detection</tspan></text>
    <text
       xml:space="preserve"
       style="font-size:99.9997px;line-height:1.25;font-family:sans-serif;letter-spacing:0px;stroke-width:7.5"
       x="5048.8604"
       y="-2681.2141"
       id="text146353"
       transform="scale(1,-1)"><tspan
         sodipodi:role="line"
         id="tspan146351"
         style="stroke-width:7.5"
         x="5048.8604"
         y="-2681.2141">Real Time Monitoring</tspan><tspan
         sodipodi:role="line"
         style="stroke-width:7.5"
         x="5048.8604"
         y="-2556.2146"
         id="tspan146355">of Manufacturing</tspan></text>
    <text
       xml:space="preserve"
       style="font-size:99.9997px;line-height:1.25;font-family:sans-serif;letter-spacing:0px;stroke-width:7.5"
       x="6295.9204"
       y="-3148.2549"
       id="text150466"
       transform="scale(1,-1)"><tspan
         sodipodi:role="line"
         id="tspan150464"
         style="stroke-width:7.5"
         x="6295.9204"
         y="-3148.2549">Digital Twin</tspan></text>
    <text
       xml:space="preserve"
       style="font-size:99.9997px;line-height:1.25;font-family:sans-serif;letter-spacing:0px;stroke-width:7.5"
       x="7542.0815"
       y="-3747.7595"
       id="text156196"
       transform="scale(1,-1)"><tspan
         sodipodi:role="line"
         id="tspan156194"
         style="stroke-width:7.5"
         x="7542.0815"
         y="-3747.7595">Analysis Tool</tspan></text>
  </g>
</svg>
